<svg width="220" height="56" viewBox="0 0 220 56" fill="none" xmlns="http://www.w3.org/2000/svg">
  <g>
    <path d="M29.5 10.5C24.5 5.5 16.6 5.8 12.2 10.5C7.7 15.2 8.2 22.9 12.6 27.1C16.2 30.5 20.8 31.4 24.1 30.4C24 34.5 23 39.5 19.5 45.5" stroke="#6E9B63" stroke-width="2.8" stroke-linecap="round"/>
    <path d="M31 17.8C33.8 14.6 33.5 9.7 30.3 6.9C27.2 4.2 22.4 4.5 19.7 7.5C17.8 9.7 17.3 12.5 17.9 14.6C20.3 13.2 23.2 12.7 26.2 13.1C28.8 13.4 30.4 15.1 31 17.8Z" fill="#F39AB5"/>
    <path d="M17.2 16.8C14.1 14.1 9.3 14.4 6.6 17.5C3.9 20.5 4.2 25.3 7.3 28C9.5 29.9 12.3 30.4 14.4 29.8C13 27.4 12.5 24.5 12.9 21.5C13.2 18.9 14.9 17.3 17.2 16.8Z" fill="#F7B6C8"/>
    <path d="M21.4 14.8C17.8 11.7 12.3 12 9.2 15.5C6.1 19.1 6.4 24.6 10 27.7C13.1 30.4 17.2 30.8 20 29.3C17.8 27 17.2 23.8 17.6 21.1C18.1 17.8 19.9 15.8 21.4 14.8Z" fill="#F07C9E"/>
    <path d="M30.8 19.2C30.9 23.5 28.5 27.5 24.6 29.7C22 31.2 18.5 31.8 15.6 30.8C17.2 27.9 17.8 24.8 17.4 21.5C17 18 18.3 15.6 20.4 14.1C23.6 11.8 28 12.3 30.8 19.2Z" fill="#EA7294"/>
    <path d="M25.3 34.5C27.7 33.3 30.7 33.7 32.7 35.7C34.8 37.8 35.2 40.9 33.7 43.4C31.3 44.6 28.3 44.2 26.3 42.2C24.2 40.1 23.8 36.9 25.3 34.5Z" fill="#8BB17E"/>
  </g>
  <text x="48" y="25" font-family="Arial, Noto Sans TC, sans-serif" font-size="19" font-weight="700" fill="#E46A92">ROSE</text>
  <text x="113" y="25" font-family="Arial, Noto Sans TC, sans-serif" font-size="19" font-weight="700" fill="#7FA56D">Lab</text>
  <text x="48" y="45" font-family="Arial, Noto Sans TC, sans-serif" font-size="11.5" letter-spacing="2" fill="#8E7B6E">自 學 研 究 所</text>
</svg>
